<?xml version="1.0" standalone="no"?>
<!DOCTYPE svg PUBLIC "-//W3C//DTD SVG 20010904//EN"
 "http://www.w3.org/TR/2001/REC-SVG-20010904/DTD/svg10.dtd">
<svg version="1.0" xmlns="http://www.w3.org/2000/svg"
 width="768.000000pt" height="768.000000pt" viewBox="0 0 768.000000 768.000000"
 preserveAspectRatio="xMidYMid meet">
<metadata>
Created by potrace 1.15, written by Peter Selinger 2001-2017
</metadata>
<g transform="translate(0.000000,768.000000) scale(0.100000,-0.100000)"
fill="#000000" stroke="none">
<path d="M3775 6320 c-6 -10 41 -100 70 -134 14 -17 24 -35 21 -42 -3 -7 0
-15 7 -18 7 -2 2 -5 -10 -5 -13 -1 -23 4 -23 9 0 6 -4 10 -10 10 -5 0 -10 -6
-10 -14 0 -7 -7 -19 -15 -26 -8 -7 -12 -17 -8 -23 3 -5 1 -7 -5 -4 -15 10 -40
-2 -45 -21 -4 -18 -7 -13 -22 33 -2 8 -8 15 -12 15 -10 0 -47 -78 -48 -99 0
-8 -6 -16 -13 -19 -7 -2 -12 -21 -12 -45 -1 -23 -7 -53 -15 -67 -8 -14 -15
-38 -15 -55 0 -16 -5 -37 -10 -45 -9 -13 -11 -13 -20 0 -12 19 -13 76 -1 99 5
9 12 46 14 82 4 60 6 64 31 67 45 6 31 29 -16 28 -33 -1 -44 3 -46 16 -2 12 5
17 29 20 28 3 32 7 35 37 2 18 -2 47 -10 63 -8 16 -12 36 -9 45 5 14 -11 32
-30 33 -14 0 -46 -85 -40 -108 3 -14 1 -22 -7 -22 -7 0 -10 7 -6 15 3 10 -1
15 -13 15 -36 0 -35 -56 1 -95 24 -25 4 -34 -22 -10 -16 15 -22 16 -35 5 -9
-7 -14 -19 -11 -27 8 -19 -7 -16 -37 8 -15 11 -34 22 -44 24 -10 2 -27 7 -38
10 -18 6 -20 1 -22 -60 -3 -62 -23 -133 -42 -145 -12 -7 -61 -100 -61 -116 0
-7 -4 -14 -9 -16 -5 -1 -11 -12 -13 -22 -5 -30 50 -42 72 -16 16 18 30 17 30
-2 0 -12 -91 -50 -106 -44 -6 2 -17 -1 -23 -7 -8 -8 -11 -5 -11 12 l0 23 -32
-21 c-18 -11 -33 -26 -34 -33 -3 -37 -5 -39 -25 -33 -17 6 -20 4 -15 -12 3
-10 0 -29 -7 -43 -8 -14 -13 -36 -12 -49 2 -22 1 -23 -12 -6 -11 16 -13 17
-13 2 0 -9 8 -21 18 -26 9 -6 12 -11 6 -11 -7 0 -15 -11 -18 -24 -3 -13 -9
-32 -12 -43 -4 -13 -3 -15 4 -4 6 9 12 10 16 3 4 -6 13 -9 21 -6 11 5 13 -2 8
-29 -6 -42 9 -55 27 -22 10 19 19 23 36 19 14 -4 29 0 36 8 7 8 28 31 47 51
29 31 32 38 21 52 -11 13 -15 13 -22 3 -5 -8 -7 -2 -6 17 1 17 -4 40 -10 51
-11 20 -7 34 9 34 11 0 49 -69 49 -91 0 -10 6 -28 13 -40 11 -18 8 -23 -21
-48 -21 -17 -33 -34 -30 -45 2 -14 -7 -22 -38 -33 -39 -13 -150 -104 -139
-114 2 -3 -13 -19 -35 -35 -29 -21 -39 -36 -37 -54 0 -14 4 -27 8 -30 8 -5 12
-27 10 -48 -1 -10 -5 -9 -17 3 -14 14 -19 14 -30 3 -17 -18 -22 -94 -6 -91 14
3 16 -29 3 -42 -10 -10 -14 -36 -12 -69 1 -17 35 -54 143 -153 15 -14 33 -41
39 -61 6 -19 24 -59 40 -89 16 -30 26 -59 23 -65 -3 -5 0 -8 7 -7 8 1 31 -5
52 -15 31 -14 37 -21 37 -46 0 -17 7 -42 16 -56 11 -16 15 -36 11 -58 -4 -26
-1 -39 14 -52 10 -9 18 -22 17 -28 -4 -21 23 -56 42 -56 11 0 20 5 20 11 0 5
-4 8 -8 5 -15 -9 -32 65 -21 86 18 34 59 22 110 -32 45 -48 48 -49 73 -36 32
16 55 45 56 68 0 9 -18 37 -39 62 -44 51 -42 45 -71 174 -21 89 -22 129 -5
222 8 48 79 187 119 235 32 37 34 38 101 39 66 1 70 2 85 31 22 42 33 52 91
81 51 26 91 60 122 104 12 18 19 20 35 11 15 -8 24 -5 44 17 14 15 23 33 21
40 -3 7 3 22 12 32 11 12 14 26 10 39 -3 12 -2 21 3 21 6 0 8 8 5 19 -3 12 2
20 16 24 24 6 90 -23 91 -40 0 -14 20 -18 20 -5 0 11 43 62 53 62 4 0 2 -9 -5
-20 -7 -10 -10 -21 -7 -24 9 -9 59 18 59 32 0 7 11 17 24 22 13 5 27 15 30 22
5 10 7 10 12 1 3 -7 18 -13 33 -13 23 0 45 -11 86 -42 47 -36 69 -62 99 -118
19 -35 39 -66 44 -68 19 -6 24 37 8 60 -21 30 -20 51 4 68 13 9 20 25 19 45 0
16 -3 24 -6 18 -2 -7 -14 -13 -26 -13 -12 0 -17 4 -12 8 6 4 11 12 12 17 1 6
5 19 9 29 6 15 4 18 -8 13 -10 -3 -19 0 -22 9 -7 19 3 18 42 -6 l32 -20 0
-103 c0 -79 4 -108 16 -123 15 -18 15 -18 10 6 -3 14 -9 35 -12 48 -4 12 -2
22 4 22 7 0 8 10 2 29 -4 16 -6 31 -4 33 2 3 6 31 8 62 3 45 11 69 35 103 17
24 31 46 31 49 0 3 9 14 20 26 27 30 14 44 -16 16 -13 -13 -24 -27 -24 -31 0
-18 -64 -97 -78 -97 -8 0 -12 6 -8 15 3 8 1 15 -4 15 -6 0 -10 -5 -10 -12 0
-25 -13 4 -17 38 -2 20 -9 46 -15 58 -7 11 -13 26 -13 31 -2 21 -19 51 -43 77
-19 21 -25 38 -25 72 0 33 -4 43 -14 39 -17 -7 -17 8 2 33 29 38 6 50 -24 12
-19 -23 -41 -18 -41 9 0 9 7 24 16 34 17 19 22 105 10 182 -6 45 -53 141 -79
165 -17 15 -18 15 -7 -13 6 -16 9 -40 5 -52 -7 -30 5 -80 16 -62 23 38 23
-137 -1 -181 -14 -27 -30 -16 -30 20 0 16 -5 32 -11 35 -6 4 -8 13 -5 21 3 7
-6 38 -19 69 -14 31 -25 71 -25 90 0 19 -5 35 -10 35 -6 0 -8 -10 -6 -22 7
-34 15 -156 9 -135 -2 10 -10 16 -16 14 -11 -4 -14 -15 -16 -79 -1 -16 -7 -28
-13 -28 -17 0 -50 58 -37 65 13 8 12 95 -2 95 -13 0 -33 20 -42 43 -8 21 -33
23 -40 3 -4 -11 -18 -2 -51 31 -25 24 -50 42 -55 38 -11 -6 -10 -39 1 -50 10
-10 -4 -45 -17 -45 -7 0 -16 11 -19 25 -6 25 -46 56 -46 35 0 -5 5 -10 12 -10
6 0 4 -8 -6 -19 -13 -14 -15 -24 -8 -38 15 -27 10 -123 -5 -123 -7 0 -13 4
-13 9 0 6 -12 16 -27 23 -15 7 -34 26 -41 41 -13 27 -15 28 -32 12 -21 -19
-42 -12 -33 10 3 9 18 15 38 15 26 0 33 4 30 18 -2 9 -4 34 -4 55 -1 22 -6 37
-13 37 -7 0 -27 24 -45 54 -29 47 -56 65 -68 46z m-421 -456 c9 -3 16 -12 16
-20 0 -8 7 -14 15 -14 8 0 15 -4 15 -10 0 -5 7 -7 15 -4 12 5 15 -3 15 -35 0
-23 -4 -41 -8 -41 -5 0 -14 -12 -21 -26 -7 -16 -17 -24 -26 -21 -18 8 -32 -11
-48 -64 -16 -52 -4 -114 27 -149 30 -32 29 -50 -3 -50 -17 0 -38 11 -55 29
-30 31 -30 49 1 158 8 29 12 57 9 62 -3 5 10 22 29 38 19 15 37 40 40 54 6 23
2 28 -39 47 -32 16 -44 26 -40 37 6 16 31 19 58 9z"/>
<path d="M4505 5004 c-16 -8 -37 -21 -45 -29 -8 -7 -25 -16 -38 -20 -13 -4
-27 -18 -33 -32 -12 -31 -11 -34 6 -57 14 -18 15 -18 64 5 28 13 54 32 57 42
3 10 29 33 57 50 44 27 49 32 30 35 -13 2 -23 8 -23 13 0 14 -42 11 -75 -7z"/>
<path d="M4473 4865 c-6 -7 -9 -16 -6 -19 4 -3 0 -6 -8 -6 -14 0 -39 -43 -39
-67 0 -19 14 -16 46 12 16 14 34 26 39 26 23 3 41 -4 58 -22 28 -30 67 -7 67
39 0 21 3 23 30 17 42 -9 38 11 -5 25 -41 14 -90 7 -114 -14 -23 -21 -36 -20
-47 3 -7 16 -11 17 -21 6z"/>
<path d="M3910 4821 c-41 -9 -87 -25 -102 -35 -15 -10 -31 -15 -37 -12 -22 14
-131 -107 -131 -146 0 -19 34 -26 45 -9 3 5 19 12 36 16 16 4 42 19 56 33 51
51 157 72 214 42 29 -16 23 -24 -28 -39 -27 -8 -63 -25 -80 -39 -20 -15 -47
-24 -70 -25 -24 0 -48 -9 -65 -23 -16 -12 -37 -25 -47 -29 -19 -6 -19 -7 -3
-35 20 -34 21 -35 86 -15 28 8 58 13 67 10 28 -9 32 14 5 26 l-26 12 26 24
c32 29 52 29 87 -1 37 -32 63 -24 74 22 11 44 39 52 36 10 -2 -32 9 -34 68
-16 39 11 49 23 27 30 -15 5 -19 39 -6 55 7 9 6 17 -6 28 -12 13 -13 21 -4 40
9 20 14 23 25 13 11 -9 17 -9 24 3 14 22 11 44 -8 61 -25 21 -169 21 -263 -1z"/>
<path d="M5105 4421 c-3 -6 -3 -28 1 -50 5 -28 0 -59 -14 -103 -12 -35 -28
-86 -37 -115 -14 -44 -85 -167 -107 -183 -4 -3 -13 -19 -21 -35 -20 -45 -51
-95 -59 -95 -4 0 -10 5 -13 10 -12 19 -22 10 -28 -24 -9 -56 -37 -104 -68
-118 -16 -7 -29 -17 -29 -22 0 -4 -7 -3 -15 4 -12 10 -16 9 -21 -4 -4 -11 -13
-15 -25 -11 -23 8 -24 -8 -3 -41 13 -18 15 -38 11 -78 -5 -52 -5 -53 26 -67
45 -20 69 -72 57 -123 -11 -48 -22 -56 -69 -45 -20 5 -61 8 -91 8 l-55 -1 55
-9 c30 -5 73 -11 96 -14 30 -4 44 -12 57 -34 51 -86 -12 -169 -139 -185 -52
-6 -116 -34 -132 -57 -7 -11 -41 -33 -75 -51 -34 -17 -81 -44 -104 -59 -23
-16 -45 -29 -50 -29 -20 -1 -53 -40 -53 -63 0 -13 -6 -30 -14 -36 -19 -16 -68
-10 -74 8 -3 10 3 12 25 7 21 -5 34 -2 42 8 17 20 5 38 -17 27 -9 -4 -49 -25
-88 -45 -39 -20 -79 -36 -88 -36 -9 0 -35 -9 -57 -19 -54 -26 -97 -35 -112
-22 -7 5 -17 7 -22 3 -11 -7 -48 -72 -92 -159 l-27 -52 19 -40 c13 -30 16 -54
12 -92 -8 -61 -26 -93 -68 -115 -29 -15 -35 -14 -78 1 -25 10 -76 34 -112 55
-74 44 -241 200 -221 207 9 4 5 12 -12 28 -20 19 -25 35 -31 110 -9 105 -3
128 71 271 73 141 103 184 172 241 78 66 331 325 332 341 0 6 -4 12 -9 12 -12
0 -98 130 -127 193 -27 61 -36 127 -17 134 7 2 15 -7 19 -22 14 -56 56 -128
101 -170 26 -25 50 -45 54 -45 4 0 15 -8 25 -17 16 -16 19 -15 51 24 19 23 63
86 97 140 55 88 68 101 121 130 71 38 88 40 155 13 29 -11 73 -21 98 -23 26
-1 49 -5 52 -9 3 -3 30 -15 60 -26 30 -11 70 -26 88 -33 31 -13 35 -12 52 9
10 12 22 22 27 22 13 0 83 60 83 72 0 6 -9 8 -22 3 -13 -3 -38 -9 -57 -11 -18
-3 -49 -11 -68 -19 -49 -21 -106 -19 -126 3 -31 34 -20 47 63 81 44 19 80 38
80 43 0 6 -8 7 -17 3 -10 -4 -38 -10 -63 -12 -33 -3 -48 0 -57 13 -11 15 -16
14 -60 -15 -84 -55 -130 -71 -197 -71 -75 0 -143 -31 -193 -87 -23 -25 -33
-31 -33 -20 0 29 -1 32 -17 50 -9 9 -22 17 -30 17 -9 0 -11 5 -7 13 6 8 3 8
-9 -1 -10 -9 -27 -11 -46 -7 -22 5 -32 2 -39 -12 -10 -17 -11 -17 -31 1 -17
16 -21 16 -21 4 0 -9 7 -21 15 -28 20 -17 15 -32 -12 -36 -23 -4 -38 27 -21
44 11 11 1 72 -12 72 -13 0 -32 -39 -25 -50 3 -5 -7 -2 -24 7 -16 10 -27 21
-25 24 2 4 -12 13 -31 19 -36 12 -43 34 -22 68 5 7 2 15 -8 18 -22 9 -31 -4
-18 -25 10 -15 7 -17 -18 -13 -23 3 -35 -3 -58 -27 -16 -17 -35 -31 -43 -31
-34 0 -114 76 -125 119 -3 13 -35 60 -70 104 -35 44 -62 86 -59 93 3 8 0 13
-6 11 -7 -1 -13 7 -15 18 -3 17 -2 17 7 5 8 -11 9 -4 5 30 -6 42 -37 90 -57
90 -8 0 -5 -40 6 -100 4 -20 18 -54 26 -60 3 -3 21 -25 40 -50 19 -25 37 -47
40 -50 3 -3 20 -26 38 -52 l32 -47 -30 -35 c-17 -19 -50 -46 -74 -60 -32 -18
-45 -34 -49 -56 -4 -17 -13 -30 -21 -30 -18 0 -69 -22 -214 -93 -81 -39 -111
-60 -140 -96 -43 -53 -62 -70 -80 -71 -15 0 -145 -105 -193 -157 -20 -21 -55
-64 -78 -95 -23 -32 -46 -58 -51 -58 -4 0 -25 -26 -45 -57 -33 -52 -36 -63
-32 -108 3 -28 1 -58 -3 -66 -15 -26 -48 -160 -60 -244 -6 -44 -19 -105 -27
-136 -15 -55 -15 -86 3 -259 l5 -55 -38 -20 c-36 -19 -38 -22 -50 -99 -6 -44
-21 -118 -32 -165 -11 -47 -27 -131 -36 -186 -33 -198 -66 -351 -91 -420 -29
-81 -36 -95 -86 -167 -25 -37 -37 -67 -40 -98 -3 -43 -5 -45 -38 -50 -19 -3
-57 -3 -84 1 -30 3 -52 2 -57 -5 -28 -34 -63 -96 -82 -146 -26 -68 -50 -98
-99 -129 -45 -27 -46 -33 -13 -59 13 -11 22 -22 19 -24 -11 -12 92 -17 263
-13 l181 3 17 -46 c9 -26 22 -68 28 -94 7 -26 18 -53 25 -60 6 -6 12 -15 12
-19 0 -13 67 -123 89 -145 11 -12 17 -25 13 -30 -4 -4 -1 -4 5 0 7 4 21 2 30
-3 10 -6 12 -11 6 -11 -7 0 -13 -4 -13 -10 0 -5 6 -7 14 -4 7 3 26 36 41 75
27 69 62 109 95 109 44 0 138 -62 221 -147 48 -50 104 -97 127 -107 22 -10 43
-24 45 -30 3 -7 -8 -27 -24 -46 -16 -18 -29 -33 -29 -34 0 -1 8 -2 18 -3 34
-3 226 -64 233 -74 3 -6 17 -9 30 -8 46 4 70 -1 63 -13 -4 -7 -3 -8 4 -4 11 7
120 -8 152 -21 8 -3 24 -7 35 -8 206 -26 225 -29 226 -44 0 -11 2 -12 6 -3 7
19 51 15 56 -6 4 -16 5 -16 6 1 1 13 7 16 24 13 73 -15 407 -21 594 -11 110 6
323 33 452 56 64 12 125 23 136 24 11 1 27 5 35 8 8 4 44 13 80 22 90 23 269
76 306 91 l31 13 -12 58 c-10 47 -9 60 1 66 18 11 180 36 300 47 145 13 171
21 284 84 55 31 106 55 113 53 6 -1 11 4 10 10 -2 7 1 13 6 13 6 0 30 14 55
31 25 17 50 27 56 24 5 -3 10 1 10 10 0 11 5 15 15 11 8 -3 15 0 15 7 0 7 31
32 68 57 37 25 72 50 79 56 32 31 146 109 155 106 5 -1 7 2 4 6 -3 5 3 17 14
27 11 10 20 16 20 13 0 -3 37 30 82 73 54 52 86 75 92 69 6 -6 15 -10 20 -10
6 0 3 5 -8 11 -16 10 -12 18 50 80 49 49 71 65 77 56 6 -9 7 -8 4 3 -2 9 26
49 67 95 100 112 154 178 223 271 l60 82 -19 83 c-11 46 -26 146 -33 221 -8
75 -20 161 -28 190 -17 69 -1 117 49 144 23 12 29 21 21 26 -8 5 -7 8 5 8 9 0
19 -6 21 -12 4 -10 6 -10 6 0 1 6 10 12 21 12 11 0 20 4 20 10 0 12 -91 11
-107 -2 -27 -22 -33 -1 -8 26 14 15 23 31 19 35 -4 3 -9 0 -11 -6 -3 -7 -10
-13 -16 -13 -6 0 -28 -12 -49 -26 -32 -22 -40 -25 -54 -14 -23 20 -44 65 -44
98 0 16 -6 50 -14 77 l-15 48 57 -6 c31 -3 98 -17 147 -32 l90 -26 84 50 c46
28 88 48 93 45 6 -4 20 -27 32 -53 12 -25 29 -57 38 -71 18 -29 31 -90 30
-140 l-1 -35 15 33 c8 18 12 37 9 42 -3 5 -1 11 5 15 15 9 12 25 -5 25 -16 0
-19 19 -9 69 5 25 9 29 20 20 11 -9 14 -7 16 7 0 11 2 24 2 31 1 6 5 15 9 19
12 13 8 23 -10 22 -10 0 -27 3 -38 7 -20 7 -20 6 0 -12 22 -20 22 -53 -1 -53
-13 0 -18 14 -17 48 1 6 -4 12 -11 12 -6 0 -4 5 4 10 13 8 13 11 1 19 -7 5
-11 13 -9 17 3 5 -3 17 -14 27 -14 13 -18 14 -18 3 0 -8 5 -18 10 -21 6 -3 10
-14 9 -23 0 -10 -3 -12 -5 -5 -3 7 -12 9 -20 6 -10 -4 -19 5 -27 26 -6 17 -17
31 -23 31 -8 0 -11 11 -8 30 4 20 1 30 -7 30 -7 0 -21 8 -32 18 -17 14 -20 15
-15 1 9 -23 -43 -12 -61 13 -9 13 -21 18 -35 14 -19 -5 -19 -3 4 14 16 13 34
18 50 15 14 -3 32 -1 40 4 12 9 12 11 -3 17 -9 3 -28 3 -42 0 -32 -8 -65 23
-65 62 0 15 -3 44 -7 66 l-6 38 184 -8 c300 -12 369 -11 373 6 2 8 12 58 22
112 13 75 20 95 32 91 12 -5 12 -1 -1 24 -15 27 -23 31 -149 57 -150 32 -341
79 -533 131 -295 80 -329 87 -347 76 -11 -7 -43 -9 -86 -5 -67 6 -69 8 -94 48
-46 73 -109 206 -118 249 -4 23 -8 34 -9 25 -1 -10 -5 -18 -10 -18 -10 0 -34
60 -27 67 2 2 -6 15 -19 29 -13 14 -33 45 -44 70 -12 24 -25 44 -29 44 -4 0
-21 12 -38 28 -17 15 -50 38 -75 51 -24 13 -51 30 -60 37 -8 8 -31 17 -50 20
-19 4 -38 10 -44 14 -5 4 -50 20 -100 34 -49 15 -97 30 -105 33 -23 9 -31 11
-94 22 -32 6 -82 17 -110 25 -28 8 -72 18 -99 21 -32 5 -52 14 -62 29 -8 11
-32 26 -52 32 -26 7 -43 21 -56 45 -10 19 -27 42 -39 52 -22 18 -63 23 -73 8z
m1849 -1237 c80 -7 241 -45 286 -67 17 -9 37 -14 45 -11 7 3 23 1 34 -6 21
-10 20 -11 -10 -41 -19 -19 -34 -27 -38 -20 -4 5 -12 6 -19 2 -14 -8 -122 -7
-287 4 -114 8 -127 15 -145 80 -17 60 -9 77 32 71 18 -3 64 -8 102 -12z
m-1715 -155 c16 -60 9 -72 -20 -36 -13 18 -30 27 -48 27 -41 0 -91 -20 -91
-36 0 -8 9 -69 21 -136 19 -112 23 -125 52 -150 l30 -27 -27 -11 c-54 -20 -63
-15 -74 48 -6 31 -16 95 -22 142 -7 47 -16 107 -20 133 -9 56 -2 62 90 82 95
21 95 21 109 -36z m-232 -1 c9 -16 62 -370 56 -380 -5 -10 -72 -22 -80 -15 -3
4 2 18 11 31 20 31 20 82 1 206 -8 52 -15 98 -15 103 0 4 -14 7 -30 7 -29 0
-30 2 -19 23 20 37 59 50 76 25z m-147 -56 c0 -5 -9 -17 -21 -28 -18 -16 -20
-27 -15 -104 5 -96 21 -235 34 -310 11 -58 4 -68 -52 -77 -38 -6 -51 11 -16
20 19 5 20 13 20 134 0 127 -11 151 -26 56 -3 -23 -15 -50 -25 -59 -23 -21
-23 -21 1 45 29 80 34 155 17 231 -9 35 -13 68 -11 72 10 16 94 34 94 20z
m-115 -79 c26 -90 28 -117 15 -190 -18 -92 -34 -127 -65 -141 -50 -23 -60 -13
-21 21 40 34 55 78 56 163 0 84 -44 182 -76 170 -8 -3 -14 1 -14 9 0 15 19 22
62 24 24 1 28 -4 43 -56z m197 -8 c3 -3 -7 -19 -23 -35 -34 -33 -33 -22 -10
-177 18 -127 34 -163 73 -163 10 0 18 -4 18 -9 0 -9 -48 -21 -89 -21 -23 0
-26 4 -28 38 -1 20 -8 89 -17 152 -10 76 -12 128 -6 153 10 45 8 43 40 56 30
12 35 13 42 6z m1557 -280 c94 -173 109 -194 147 -201 67 -12 82 33 39 125
-14 30 -23 56 -21 58 7 8 76 -134 76 -156 0 -31 -28 -51 -72 -51 -57 0 -96 44
-175 194 -65 123 -73 157 -55 237 6 28 8 20 12 -46 5 -70 11 -90 49 -160z
m-2809 -1031 c0 -6 9 -19 20 -29 11 -10 20 -22 20 -26 0 -21 64 -98 107 -129
26 -19 58 -46 70 -60 l22 -25 1 23 c0 12 -4 22 -10 22 -18 0 -10 27 13 43 12
9 40 32 61 51 41 37 56 38 56 5 0 -10 1 -19 3 -19 1 0 26 -9 54 -19 57 -21 65
-17 77 31 3 15 17 44 31 65 53 82 42 77 146 75 123 -3 141 2 159 41 8 18 24
34 35 36 11 2 22 6 25 10 12 15 51 30 65 25 8 -4 22 -1 30 6 8 7 30 15 49 20
30 7 35 5 45 -17 9 -20 14 -22 31 -13 11 6 34 8 52 5 18 -3 62 -9 98 -15 36
-5 108 -17 160 -25 114 -19 121 -19 187 -10 50 7 103 -2 228 -38 22 -6 47 -11
56 -9 30 5 56 -49 34 -72 -8 -8 -15 -19 -15 -25 0 -14 -15 -14 -60 -1 -35 9
-93 2 -230 -29 -25 -6 -99 -22 -165 -36 -112 -24 -267 -72 -325 -100 -14 -6
-41 -11 -61 -10 -33 2 -39 -2 -53 -32 -9 -19 -16 -45 -16 -58 0 -13 -8 -29
-18 -34 -19 -10 -120 -27 -136 -23 -4 2 -13 -1 -20 -6 -6 -5 -40 -19 -76 -32
-36 -12 -73 -31 -83 -41 -20 -21 -86 -26 -103 -9 -8 8 -25 7 -56 -1 -40 -11
-48 -10 -62 3 -9 9 -16 22 -16 29 0 6 -11 22 -25 35 -14 13 -25 25 -25 28 0 3
-13 20 -30 38 -16 18 -30 28 -30 23 0 -5 -6 0 -14 11 -8 10 -17 16 -21 12 -7
-7 10 -44 31 -68 37 -41 72 -87 83 -107 6 -13 37 -42 69 -65 63 -46 91 -76 92
-96 0 -7 4 -11 9 -7 13 7 23 -9 46 -80 19 -57 22 -60 50 -57 41 5 41 7 12 42
-32 37 -27 63 8 46 14 -6 28 -26 34 -48 8 -26 16 -36 26 -32 8 4 15 14 15 23
1 11 7 8 24 -13 21 -26 24 -27 28 -10 4 18 5 18 16 -3 33 -60 53 -244 30 -286
-14 -28 -34 -47 -41 -41 -2 3 -2 63 1 133 2 70 1 135 -4 144 -6 10 -9 -10 -10
-59 0 -40 -3 -76 -6 -80 -10 -10 -60 10 -72 29 -7 11 -6 21 5 34 20 23 13 53
-11 53 -10 0 -28 12 -39 28 -20 27 -20 27 -21 4 0 -13 -4 -20 -10 -17 -14 9
-13 -1 5 -34 8 -16 22 -31 31 -35 13 -5 14 -9 4 -21 -15 -18 -9 -71 8 -67 7 1
-1 -16 -19 -38 -18 -22 -37 -40 -43 -41 -48 -2 -78 -8 -89 -17 -19 -15 -129
-14 -173 1 -21 8 -59 24 -84 35 -76 35 -212 47 -297 27 -12 -3 -28 2 -37 10
-18 19 -26 19 -26 1 0 -16 -31 -24 -105 -25 -27 -1 -76 -6 -109 -12 -32 -6
-87 -10 -123 -10 -77 0 -103 17 -103 66 0 41 26 64 76 69 92 10 154 20 234 37
117 26 218 54 226 62 4 4 27 7 50 7 43 0 64 13 43 25 -12 8 -158 20 -229 19
-41 -1 -206 -16 -305 -29 -231 -30 -235 -30 -261 -4 -57 58 -25 139 55 139 22
0 43 -5 46 -11 5 -7 11 -5 18 4 7 8 41 19 77 25 36 7 97 19 135 27 39 8 106
20 149 27 52 7 91 19 114 35 19 12 38 23 43 23 15 0 22 90 10 133 -6 23 -13
73 -15 110 -3 58 -9 74 -34 105 -16 21 -33 48 -37 62 -4 14 -22 48 -40 75 -56
88 -68 146 -39 203 17 36 27 38 66 18 24 -13 27 -12 32 8 5 17 15 3 51 -69 24
-49 44 -95 45 -101z m-142 -381 c56 -5 53 -2 66 -80 3 -20 0 -35 -9 -43 -19
-16 -46 -5 -39 15 3 8 4 15 1 15 -27 0 -112 23 -132 36 -24 16 -33 52 -18 68
5 4 24 5 43 1 19 -3 59 -9 88 -12z m861 -742 c8 -5 11 -16 7 -26 -10 -26 2
-35 32 -23 15 6 36 14 47 19 42 16 141 19 208 4 68 -14 139 -23 232 -30 28 -2
56 -4 63 -4 18 -1 15 -21 -5 -28 -10 -4 -24 -13 -31 -20 -7 -7 -29 -13 -47
-13 -19 0 -36 -4 -39 -9 -3 -4 -24 -5 -46 -1 -22 4 -40 4 -40 -1 0 -5 -31 -7
-69 -6 -62 3 -71 6 -94 32 -24 28 -26 29 -52 15 -26 -14 -27 -17 -21 -71 4
-32 3 -60 -2 -63 -5 -3 -27 9 -48 27 -21 18 -52 41 -67 50 -15 10 -31 26 -34
35 -4 9 -13 23 -20 31 -12 11 -11 15 4 26 14 11 16 16 6 26 -14 14 -17 39 -5
39 4 0 13 -4 21 -9z"/>
<path d="M4345 4239 c-22 -17 -49 -37 -60 -45 -26 -19 -10 -34 51 -50 43 -11
47 -10 52 8 3 14 11 18 24 15 12 -4 21 1 25 11 4 9 12 21 20 25 22 13 15 36
-17 52 -40 21 -49 19 -95 -16z"/>
<path d="M7105 3651 c-16 -32 -6 -32 -121 -2 -23 6 -53 11 -68 11 -49 0 -26
-17 47 -34 116 -26 153 -25 162 5 6 19 9 19 29 5 35 -22 87 -77 81 -85 -2 -4
3 -18 11 -30 13 -19 18 -20 32 -9 12 10 14 10 8 1 -4 -8 -1 -13 9 -13 9 0 27
-7 40 -16 15 -10 72 -22 137 -30 62 -7 128 -16 146 -20 28 -6 32 -4 32 14 0
12 -11 24 -29 32 -16 6 -35 25 -41 41 -7 16 -20 29 -29 29 -11 1 -8 5 9 15 27
16 33 15 -135 20 -124 3 -235 29 -235 53 0 8 -52 42 -64 42 -3 0 -12 -13 -21
-29z"/>
</g>
</svg>
